<svg width="396" height="128" viewBox="0 0 396 128" fill="none" xmlns="http://www.w3.org/2000/svg">
<path fill-rule="evenodd" clip-rule="evenodd" d="M64.0088 0C46.919 0 30.9784 6.52812 19.1192 18.3874C17.902 19.6045 17.9624 21.5961 19.2499 22.7378L53.1454 52.7707C53.0096 53.4622 52.9366 54.1739 52.9366 54.9056C52.9366 58.5595 54.7095 61.8009 57.4404 63.8152C59.2636 65.1605 60.8428 67.0641 60.8428 69.3299V80.5253C60.8428 82.791 59.2636 84.6971 57.4404 86.0425C56.9803 86.382 56.5528 86.7566 56.1504 87.1615L7.18949 44.9148C5.53985 43.4915 2.96733 44.261 2.37135 46.3582C0.797155 51.9182 0 57.8478 0 63.9937C0 99.2924 28.7127 128 63.9962 128C72.2142 128 80.1732 126.476 87.7097 123.469C89.2412 122.857 89.9025 121.08 89.2185 119.581C88.537 118.082 86.7717 117.426 85.2378 118.032C78.4884 120.692 71.3542 122.038 63.9962 122.038C31.9994 122.038 5.96483 96.0006 5.96483 63.9987C5.96483 63.1438 5.98244 62.2913 6.01513 61.4438C6.17355 57.5058 10.7427 55.8612 13.7252 58.4363L53.2133 92.5052C53.0347 93.2948 52.9366 94.1121 52.9366 94.957C52.9366 98.6109 54.7095 101.852 57.4404 103.867C59.2636 105.212 60.8428 107.116 60.8428 109.384V117.743C60.8428 119.39 62.1781 120.725 63.8252 120.725C65.4723 120.725 66.8076 119.39 66.8076 117.743V109.613C66.8076 107.284 68.4699 105.345 70.371 104C73.2075 101.998 75.0583 98.6939 75.0583 94.957C75.0583 94.0392 74.9452 93.149 74.7365 92.299L114.152 57.2292C117.071 54.6315 121.64 56.158 121.904 60.0557C121.992 61.3634 122.038 62.681 122.038 64.0113C122.038 75.2771 118.847 86.0953 112.784 95.465C111.888 96.8456 112.185 98.7064 113.518 99.667C114.853 100.63 116.722 100.331 117.622 98.9529C124.414 88.5572 127.992 76.537 128 64.0113C128.005 28.7076 99.2923 0 64.0088 0ZM29.9398 24.2365C27.649 22.2072 27.6314 18.6137 30.1083 16.8132C37.5593 11.4016 46.2249 7.90366 55.474 6.56836C58.3784 6.14841 60.8428 8.50467 60.8428 11.4393V19.1091C60.8428 20.7562 62.1781 22.0915 63.8252 22.0915C65.4723 22.0915 66.8076 20.7562 66.8076 19.1091V11.3991C66.8076 8.47449 69.2595 6.12326 72.1539 6.53064C81.5839 7.86342 90.2923 11.472 97.7056 16.7805C100.208 18.571 100.213 22.1871 97.9143 24.2315L72.0105 47.2811C69.9963 45.1638 67.1522 43.841 63.9987 43.841C60.8453 43.841 57.9861 45.1713 55.9719 47.2987L29.9398 24.2365ZM117.954 45.8603L71.6962 87.0131C71.2838 86.6133 70.8437 86.2411 70.3735 85.9092C68.4724 84.5664 66.8102 82.625 66.8102 80.2964V69.5562C66.8102 67.2276 68.4724 65.2888 70.3735 63.9459C73.21 61.9417 75.0608 58.6399 75.0608 54.9031C75.0608 54.1663 74.9879 53.4446 74.8496 52.748L102.79 27.8904C104.87 26.0396 108.069 26.1779 109.784 28.3732C113.483 33.1134 116.463 38.4395 118.557 44.1881C118.776 44.7891 118.432 45.4353 117.954 45.8603Z" fill="#F8F8FA"/>
<path d="M256.194 52.7164H246.948V95.1657H233.417V52.7164H227.43V41.5973H233.417V38.8846C233.417 32.2966 235.266 27.4674 238.935 24.3671C242.604 21.2669 248.181 19.836 255.607 20.0149V31.4321C252.378 31.3725 250.118 31.909 248.856 33.0716C247.594 34.2342 246.948 36.3209 246.948 39.3615V41.5973H256.194V52.7164Z" fill="#F8F8FA"/>
<path fill-rule="evenodd" clip-rule="evenodd" d="M167.199 53.7594C169.313 49.5562 172.218 46.3367 175.858 44.101C179.498 41.8354 183.577 40.7026 188.097 40.7026C192.031 40.7026 195.465 41.5075 198.429 43.1172C201.394 44.727 203.742 46.7541 205.532 49.1985V41.5671H218.946V95.1355H205.532V87.2955C203.83 89.7996 201.452 91.8863 198.429 93.5258C195.406 95.1653 191.942 96 188.009 96C183.577 96 179.527 94.8374 175.858 92.5123C172.218 90.1871 169.313 86.908 167.199 82.7048C165.086 78.4718 164 73.6426 164 68.1576C164 62.762 165.057 57.9626 167.199 53.7594ZM203.624 59.9002C202.362 57.5452 200.63 55.7268 198.488 54.4748C196.316 53.2228 194.026 52.5968 191.532 52.5968C189.037 52.5968 186.777 53.2228 184.663 54.445C182.579 55.6672 180.877 57.4558 179.556 59.8108C178.265 62.1658 177.59 64.9679 177.59 68.1874C177.59 71.4068 178.235 74.2388 179.556 76.6534C180.848 79.068 182.579 80.9162 184.693 82.2279C186.806 83.5097 189.095 84.1655 191.502 84.1655C193.968 84.1655 196.286 83.5395 198.458 82.2875C200.63 81.0355 202.333 79.217 203.595 76.8621C204.857 74.5071 205.503 71.6751 205.503 68.396C205.503 65.117 204.886 62.2552 203.624 59.9002Z" fill="#F8F8FA"/>
<path d="M280.38 78.6516V52.7468H292.15V41.6277H280.351V28.3623H266.937V41.6277H260.656V52.7468H266.967V78.5622C266.967 89.6515 272.573 95.1961 283.814 95.1961H292.209V83.7789H286.016C283.961 83.7789 282.523 83.3616 281.672 82.5567C280.821 81.7519 280.38 80.47 280.38 78.6516Z" fill="#F8F8FA"/>
<path d="M321.852 43.2371C324.611 41.6274 327.781 40.8225 331.332 40.8225V55.0418H327.81C323.613 55.0418 320.472 56.0554 318.329 58.0526C316.216 60.0499 315.13 63.5377 315.13 68.4861V95.1958H301.805V41.5976H315.13V49.9145C316.833 47.0528 319.093 44.8469 321.852 43.2371Z" fill="#F8F8FA"/>
<path fill-rule="evenodd" clip-rule="evenodd" d="M348.678 44.1007C345.039 46.3365 342.133 49.5559 340.02 53.7591C337.906 57.9623 336.85 62.7617 336.82 68.1573C336.82 73.6423 337.906 78.4715 340.02 82.7046C342.133 86.9078 345.039 90.1869 348.678 92.512C352.347 94.8372 356.398 95.9998 360.83 95.9998C364.763 95.9998 368.226 95.1651 371.249 93.5256C374.273 91.886 376.65 89.7993 378.352 87.2953V95.1353H391.766V41.5669H378.352V49.1982C376.562 46.7538 374.214 44.7267 371.249 43.117C368.285 41.5073 364.851 40.7024 360.918 40.7024C356.398 40.7024 352.318 41.8352 348.678 44.1007ZM371.337 54.4746C373.48 55.7266 375.212 57.545 376.474 59.9C377.736 62.255 378.352 65.1167 378.352 68.3958C378.352 71.6749 377.707 74.5068 376.445 76.8618C375.182 79.2168 373.48 81.0352 371.308 82.2872C369.136 83.5392 366.817 84.1652 364.352 84.1652C361.945 84.1652 359.656 83.5094 357.542 82.2276C355.429 80.916 353.697 79.0677 352.406 76.6531C351.085 74.2385 350.439 71.4066 350.439 68.1871C350.439 64.9676 351.114 62.1655 352.406 59.8105C353.727 57.4556 355.429 55.667 357.513 54.4448C359.626 53.2225 361.916 52.5965 364.381 52.5965C366.876 52.5965 369.165 53.2225 371.337 54.4746Z" fill="#F8F8FA"/>
</svg>
