<svg width="264" height="81" viewBox="0 0 264 81" fill="none" xmlns="http://www.w3.org/2000/svg">
<path d="M119.949 54.2826C115.19 54.2826 111.352 50.4438 111.352 45.6837C111.352 40.9237 115.19 37.0849 119.949 37.0849C124.708 37.0849 128.546 40.9237 128.546 45.6837C128.622 50.4438 124.708 54.2826 119.949 54.2826V54.2826Z" fill="#FF8300"/>
<path d="M254.578 54.2826C249.819 54.2826 245.981 50.4439 245.981 45.6838C245.981 40.9237 249.819 37.0849 254.578 37.0849C259.337 37.0849 263.174 40.9237 263.174 45.6838C263.174 50.4439 259.337 54.2826 254.578 54.2826V54.2826Z" fill="#06B7A7"/>
<path d="M9.42059 54.2826C4.66172 54.2826 0.823914 50.4439 0.823914 45.6838C0.823914 40.9237 4.66172 37.0849 9.42059 37.0849C14.1795 37.0849 18.0173 40.9237 18.0173 45.6838C18.0173 50.4439 14.1795 54.2826 9.42059 54.2826V54.2826Z" fill="#0295F5"/>
<path fill-rule="evenodd" clip-rule="evenodd" d="M45.494 13.1278C37.2043 13.1278 30.4498 19.884 30.4498 28.1757C30.4498 36.5443 37.2043 43.3005 45.494 43.3005C53.7836 43.3005 60.5381 36.5443 60.5381 28.2525C60.5381 19.884 53.7836 13.1278 45.494 13.1278V13.1278ZM45.2633 55.5095C37.5877 55.5095 31.0635 52.8224 25.844 47.5249C20.6246 42.3041 18.0149 35.7014 18.0149 27.8703C18.0149 20.4231 20.7014 14.0508 25.9976 8.83004C31.2937 3.60931 37.8947 0.99894 45.4936 0.99894C53.1692 0.99894 59.6935 3.68608 65.0664 8.90681C70.3626 14.1275 73.049 20.6535 73.049 28.2542C73.049 35.9318 70.3626 42.4577 65.0664 47.6784C59.6935 52.8991 53.0157 55.5095 45.2633 55.5095V55.5095ZM218.503 13.1278C210.214 13.1278 203.459 19.884 203.459 28.1757C203.459 36.5443 210.214 43.3005 218.503 43.3005C226.793 43.3005 233.548 36.5443 233.548 28.2525C233.548 19.884 226.793 13.1278 218.503 13.1278V13.1278ZM218.273 55.5084C210.597 55.5084 204.073 52.8213 198.854 47.5238C193.634 42.3031 191.025 35.7004 191.025 27.8693C191.025 20.4221 193.711 14.0497 199.007 8.82897C204.303 3.60824 210.828 0.997879 218.503 0.997879C226.179 0.997879 232.703 3.68502 238.076 8.90575C243.372 14.1265 246.059 20.6524 246.059 28.2532C246.059 35.9307 243.372 42.4566 238.076 47.6773C232.626 52.8981 226.025 55.5084 218.273 55.5084V55.5084ZM112.889 31.7055V3.60568C112.889 2.9147 113.503 2.3005 114.193 2.3005H126.014C126.705 2.3005 127.319 2.9147 127.319 3.60568V31.7055C127.319 32.3965 126.705 33.0107 126.014 33.0107H114.193C113.426 33.0107 112.889 32.4732 112.889 31.7055V31.7055ZM158.864 13.2056C150.882 13.3592 144.204 19.9618 144.05 28.0233C143.974 32.0924 145.509 35.9311 148.349 38.8486C151.189 41.7661 155.026 43.3784 159.094 43.3784H159.401C167.384 43.2248 174.062 36.6221 174.215 28.5607C174.292 24.4916 172.757 20.6528 169.917 17.7354C167.077 14.8179 163.239 13.2056 159.171 13.2056L158.864 13.2056ZM161.398 80.9979C154.567 80.9979 148.81 79.0785 144.358 75.3933C139.753 71.5545 137.066 66.1802 136.376 59.5007L136.299 59.1169C136.222 58.6562 136.606 58.1956 137.066 58.1956H149.194C149.578 58.1956 149.885 58.5027 149.961 58.8865L150.038 59.1936C150.422 61.4201 151.113 63.186 152.034 64.3376C154.183 67.1783 157.253 68.4835 161.475 68.4835C169.15 68.4835 172.835 63.8002 172.835 54.28V53.2819C172.835 52.6677 172.221 52.2839 171.683 52.591C167.846 54.5103 163.547 55.5084 158.865 55.5084C151.19 55.5084 144.665 52.8213 139.446 47.5238C134.226 42.3031 131.617 35.7004 131.617 27.8693C131.617 20.4221 134.303 14.0497 139.599 8.82897C144.896 3.60824 151.42 0.997879 159.095 0.997879C163.701 0.997879 167.922 1.99596 171.76 3.91534C172.297 4.14567 172.912 3.76179 172.912 3.22437C172.912 2.76371 173.295 2.45661 173.679 2.45661H185.807C186.267 2.45661 186.574 2.84049 186.574 3.22437V51.8232C186.574 54.2032 186.497 56.2762 186.344 58.1188C186.19 59.9614 185.96 61.5737 185.73 62.9556C184.885 66.8712 183.197 70.2493 180.664 73.09C176.059 78.3107 169.534 80.9979 161.398 80.9979V80.9979ZM91.0895 4.52699C91.0895 5.14119 91.7035 5.52507 92.2408 5.21797C96.0018 3.29858 100.3 2.3005 104.906 2.3005C105.673 2.3005 106.517 2.3005 107.439 2.37727V2.37727C108.053 2.45405 108.513 2.9147 108.513 3.52891V13.5097C108.513 14.2007 107.899 14.7381 107.208 14.6613C106.517 14.5846 105.827 14.5078 105.213 14.5078H104.599C97.1532 14.6613 91.1662 20.9569 91.1662 28.5577V53.0491C91.1662 53.6633 90.6289 54.2007 90.0149 54.2007H78.5782C77.9642 54.2007 77.4269 53.6633 77.4269 53.0491V3.60568C77.4269 2.99148 77.9642 2.45405 78.5782 2.45405H90.0149H90.3987C90.8592 2.45405 91.1662 2.83793 91.1662 3.2218V4.52699H91.0895Z" fill="white"/>
</svg>
