<?xml version="1.0" encoding="UTF-8" standalone="no"?>
<!-- Created with Inkscape (http://www.inkscape.org/) -->

<svg
   version="1.1"
   id="svg777"
   width="385.79999"
   height="84.438004"
   viewBox="0 0 385.79999 84.438002"
   xmlns="http://www.w3.org/2000/svg"
   xmlns:svg="http://www.w3.org/2000/svg">
  <defs
     id="defs781">
    <clipPath
       clipPathUnits="userSpaceOnUse"
       id="clipPath801">
      <path
         d="M 0,841.89 H 595.276 V 0 H 0 Z"
         id="path799" />
    </clipPath>
  </defs>
  <g
     id="g783"
     transform="matrix(1.3333333,0,0,-1.3333333,0,1122.52)">
    <g
       id="g795">
      <g
         id="g797"
         clip-path="url(#clipPath801)">
        <g
           id="g803"
           transform="translate(46.765,805.10602)">
          <path
             d="m 0,0 c 0.15,0.402 0.286,0.81 0.403,1.227 l 10.29,-3.556 c 1.482,4.801 1.651,10.067 0.187,15.263 -0.465,1.652 -1.09,3.215 -1.827,4.698 l 4.736,2.095 c -1.679,3.446 -4.002,6.65 -6.978,9.419 -2.979,2.774 -6.349,4.868 -9.911,6.3 L -8.536,20.337 c -0.703,0.315 -1.435,0.581 -2.191,0.794 l 2.983,10.456 c -3.73,1.063 -7.728,1.329 -11.743,0.663 l 0.711,-4.52 c -0.723,-0.119 -1.443,-0.276 -2.158,-0.47 L -23,36.784 c -5.803,-1.465 -11.266,-4.55 -15.648,-9.257 -4.38,-4.704 -7.071,-10.373 -8.117,-16.264 l 5.119,-0.735 c -0.131,-0.702 -0.243,-1.41 -0.317,-2.126 l 4.579,-0.322 c -0.186,-1.667 -0.193,-3.361 0.003,-5.052 l 13.598,2.039 c -0.043,0.708 0.005,1.419 0.133,2.12 0.058,0.312 0.139,0.621 0.231,0.926 0.002,0.006 0.003,0.012 0.004,0.018 0.041,0.136 0.09,0.27 0.138,0.405 0.082,0.231 0.174,0.46 0.277,0.685 0.05,0.109 0.101,0.217 0.155,0.324 0.021,0.04 0.045,0.08 0.066,0.121 0.114,0.216 0.238,0.427 0.372,0.635 0.02,0.031 0.039,0.062 0.059,0.094 0.073,0.108 0.148,0.215 0.225,0.322 0.204,0.279 0.414,0.555 0.655,0.815 0.879,0.946 1.925,1.635 3.044,2.096 0.18,0.074 0.361,0.143 0.544,0.205 0.107,0.036 0.212,0.08 0.319,0.111 0.336,0.099 0.677,0.177 1.021,0.234 0.091,0.015 0.183,0.021 0.273,0.033 0.268,0.036 0.536,0.062 0.806,0.073 0.117,0.005 0.234,0.003 0.351,0.003 h 0.026 c 0.235,-0.001 0.471,-0.011 0.707,-0.03 0.135,-0.012 0.271,-0.025 0.406,-0.043 0.233,-0.03 0.464,-0.074 0.695,-0.124 0.127,-0.027 0.254,-0.05 0.38,-0.083 0.678,-0.179 1.337,-0.442 1.966,-0.788 0.141,-0.078 0.277,-0.168 0.415,-0.255 0.2,-0.125 0.399,-0.252 0.59,-0.395 0.253,-0.187 0.504,-0.38 0.74,-0.6 0.191,-0.179 0.359,-0.373 0.531,-0.565 0.122,-0.136 0.244,-0.273 0.357,-0.415 0.008,-0.01 0.016,-0.021 0.024,-0.031 0.114,-0.145 0.217,-0.295 0.321,-0.445 C -7.858,10.376 -7.765,10.24 -7.68,10.1 -7.628,10.013 -7.571,9.929 -7.521,9.841 -7.36,9.552 -7.214,9.256 -7.088,8.954 -7.084,8.946 -7.08,8.938 -7.077,8.931 -6.947,8.616 -6.84,8.295 -6.749,7.97 -6.724,7.881 -6.707,7.791 -6.685,7.702 -6.626,7.465 -6.574,7.228 -6.536,6.987 -6.519,6.876 -6.506,6.766 -6.493,6.654 -6.465,6.429 -6.446,6.203 -6.437,5.976 -6.432,5.864 -6.428,5.752 -6.428,5.641 -6.426,4.991 -6.49,4.34 -6.633,3.702 -6.708,3.366 -6.803,3.035 -6.919,2.709 -6.994,2.498 -7.077,2.29 -7.168,2.084 -7.191,2.034 -7.21,1.982 -7.234,1.932 -7.609,1.128 -8.111,0.369 -8.749,-0.314 -8.787,-0.355 -8.826,-0.394 -8.865,-0.433 h -10e-4 c -0.578,-0.599 -1.23,-1.081 -1.919,-1.477 -0.163,-0.094 -0.328,-0.183 -0.497,-0.266 -0.218,-0.107 -0.44,-0.204 -0.665,-0.292 -0.141,-0.055 -0.284,-0.106 -0.428,-0.154 -0.256,-0.085 -0.517,-0.156 -0.779,-0.217 -0.007,-0.002 -0.013,-0.004 -0.019,-0.005 -0.162,-0.037 -0.326,-0.073 -0.49,-0.1 -0.272,-0.046 -0.546,-0.075 -0.822,-0.095 -0.161,-0.011 -0.322,-0.026 -0.483,-0.028 -0.351,-0.006 -0.702,0.008 -1.052,0.045 -0.072,0.007 -0.144,0.01 -0.216,0.02 -0.431,0.056 -0.859,0.139 -1.28,0.259 l -9.267,-21.617 c 8.229,-3.201 17.47,-2.872 25.451,0.907 l -2.376,4.61 c 1.699,0.792 3.299,1.73 4.761,2.824 l -2.89,3.582 c 0.947,0.697 1.832,1.451 2.641,2.269 l 6.915,-6.866 c 0.237,0.239 0.478,0.477 0.712,0.725 2.863,3.078 5.001,6.567 6.436,10.261 z"
             style="fill:#ef3120;fill-opacity:1;fill-rule:nonzero;stroke:none"
             id="path805" />
        </g>
        <g
           id="g807"
           transform="translate(24.0184,796.50892)">
          <path
             d="M 0,0 3.305,6.673 C 2.743,6.996 2.209,7.385 1.713,7.845 1.469,8.075 1.248,8.32 1.034,8.569 0.875,8.755 0.721,8.944 0.58,9.14 0.527,9.213 0.479,9.288 0.43,9.362 0.313,9.535 0.204,9.711 0.101,9.891 c -0.056,0.097 -0.112,0.195 -0.163,0.295 -0.113,0.215 -0.219,0.435 -0.313,0.658 -0.024,0.059 -0.048,0.117 -0.071,0.176 -0.096,0.241 -0.179,0.485 -0.252,0.732 -0.034,0.118 -0.068,0.236 -0.099,0.354 L -18.56,7.708 c 0.059,-0.237 0.117,-0.475 0.183,-0.712 L -23.36,5.625 c 1.23,-4.454 3.433,-8.687 6.593,-12.363 l 7.449,6.302 c 0.79,-0.914 1.632,-1.769 2.541,-2.531 l 4.126,4.763 C -1.833,1.117 -0.95,0.51 0,0"
             style="fill:#ef3120;fill-opacity:1;fill-rule:nonzero;stroke:none"
             id="path809" />
        </g>
        <g
           id="g811"
           transform="translate(74.9169,825.02252)">
          <path
             d="M 0,0 H 1.711 V -5.527 H 8.48 V 0 h 1.711 V -12.855 H 8.48 v 5.887 H 1.711 v -5.887 H 0 Z"
             style="fill:#ffffff;fill-opacity:1;fill-rule:nonzero;stroke:none"
             id="path813" />
        </g>
        <g
           id="g815"
           transform="translate(92.9715,828.51522)">
          <path
             d="m 0,0 h 1.963 l -2.359,-2.574 h -1.153 z m -2.664,-11.037 h 4.357 l -2.143,5.996 h -0.034 z m 1.277,7.544 h 1.892 l 5.023,-12.855 h -1.89 l -1.406,3.871 h -5.436 l -1.441,-3.871 h -1.764 z"
             style="fill:#ffffff;fill-opacity:1;fill-rule:nonzero;stroke:none"
             id="path817" />
        </g>
        <g
           id="g819"
           transform="translate(107.3719,821.25982)">
          <path
             d="m 0,0 c -0.197,1.837 -1.422,2.629 -3.187,2.629 -1.44,0 -2.88,-0.523 -2.88,-2.198 0,-1.584 2.052,-1.817 4.124,-2.286 2.051,-0.468 4.104,-1.188 4.104,-3.709 0,-2.737 -2.682,-3.834 -5.023,-3.834 -2.881,0 -5.312,1.404 -5.312,4.537 h 1.621 c 0,-2.161 1.8,-3.097 3.745,-3.097 1.548,0 3.257,0.485 3.257,2.34 0,1.764 -2.051,2.071 -4.103,2.522 -2.053,0.449 -4.123,1.044 -4.123,3.402 0,2.611 2.322,3.764 4.663,3.764 2.628,0 4.628,-1.243 4.735,-4.07 z"
             style="fill:#ffffff;fill-opacity:1;fill-rule:nonzero;stroke:none"
             id="path821" />
        </g>
        <g
           id="g823"
           transform="translate(111.7801,825.02252)">
          <path
             d="M 0,0 H 1.711 V -6.41 L 8.229,0 h 2.214 l -5.42,-5.186 5.635,-7.669 H 8.5 l -4.646,6.5 -2.143,-1.999 v -4.501 H 0 Z"
             style="fill:#ffffff;fill-opacity:1;fill-rule:nonzero;stroke:none"
             id="path825" />
        </g>
        <g
           id="g827"
           transform="translate(129.8544,828.51522)">
          <path
             d="m 0,0 h 1.963 l -2.359,-2.574 h -1.153 z m -0.449,-15.214 c 3.131,0 4.445,2.7 4.445,5.293 0,2.593 -1.314,5.295 -4.445,5.295 -3.135,0 -4.449,-2.702 -4.449,-5.295 0,-2.593 1.314,-5.293 4.449,-5.293 m 0,12.028 c 4.087,0 6.157,-3.241 6.157,-6.735 0,-3.493 -2.07,-6.733 -6.157,-6.733 -4.088,0 -6.158,3.24 -6.158,6.733 0,3.494 2.07,6.735 6.158,6.735"
             style="fill:#ffffff;fill-opacity:1;fill-rule:nonzero;stroke:none"
             id="path829" />
        </g>
        <g
           id="g831"
           transform="translate(137.826,825.02252)">
          <path
             d="m 0,0 h 1.71 v -11.416 h 6.807 v -1.439 H 0 Z"
             style="fill:#ffffff;fill-opacity:1;fill-rule:nonzero;stroke:none"
             id="path833" />
        </g>
        <path
           d="m 148.0844,825.02302 h 1.712 v -12.855 h -1.712 z"
           style="fill:#ffffff;fill-opacity:1;fill-rule:nonzero;stroke:none"
           id="path835" />
        <g
           id="g837"
           transform="translate(152.8368,825.02252)">
          <path
             d="M 0,0 H 1.82 L 8.59,-10.425 H 8.626 V 0 h 1.621 V -12.855 H 8.374 L 1.658,-2.539 H 1.622 V -12.855 H 0 Z"
             style="fill:#ffffff;fill-opacity:1;fill-rule:nonzero;stroke:none"
             id="path839" />
        </g>
        <g
           id="g841"
           transform="translate(166.0145,825.02252)">
          <path
             d="m 0,0 h 1.818 l 6.77,-10.425 H 8.623 V 0 h 1.622 V -12.855 H 8.371 L 1.654,-2.539 H 1.619 V -12.855 H 0 Z"
             style="fill:#ffffff;fill-opacity:1;fill-rule:nonzero;stroke:none"
             id="path843" />
        </g>
        <path
           d="m 184.4634,825.02302 h 1.709 v -12.855 h -1.709 z m 1.315,3.492 h 1.963 l -2.36,-2.574 h -1.152 z"
           style="fill:#ffffff;fill-opacity:1;fill-rule:nonzero;stroke:none"
           id="path845" />
        <g
           id="g847"
           transform="translate(199.6922,819.09822)">
          <path
             d="m 0,0 c 1.603,0 2.971,0.415 2.971,2.287 0,1.261 -0.684,2.197 -2.286,2.197 H -3.564 V 0 Z m -5.275,5.924 h 6.049 c 2.414,0 3.908,-1.314 3.908,-3.366 0,-1.549 -0.686,-2.827 -2.233,-3.26 V -0.738 C 3.943,-1.025 4.25,-2.124 4.376,-3.385 4.483,-4.644 4.41,-6.049 5.132,-6.931 H 3.224 C 2.737,-6.409 3.007,-5.023 2.755,-3.762 2.575,-2.501 2.269,-1.44 0.612,-1.44 h -4.176 v -5.491 h -1.711 z"
             style="fill:#ffffff;fill-opacity:1;fill-rule:nonzero;stroke:none"
             id="path849" />
        </g>
        <g
           id="g851"
           transform="translate(206.9266,825.02252)">
          <path
             d="M 0,0 H 8.877 V -1.44 H 1.711 v -4.087 h 6.68 v -1.441 h -6.68 v -4.448 H 8.93 v -1.439 H 0 Z"
             style="fill:#ffffff;fill-opacity:1;fill-rule:nonzero;stroke:none"
             id="path853" />
        </g>
        <g
           id="g855"
           transform="translate(223.4169,817.42492)">
          <path
             d="M 0,0 V -5.258 H -1.711 V 0 L -6.68,7.598 h 2.034 l 3.854,-6.121 3.764,6.121 h 1.944 z"
             style="fill:#ffffff;fill-opacity:1;fill-rule:nonzero;stroke:none"
             id="path857" />
        </g>
        <g
           id="g859"
           transform="translate(229.9491,825.02252)">
          <path
             d="M 0,0 H 1.711 V -6.41 L 8.229,0 h 2.214 l -5.421,-5.186 5.637,-7.669 h -2.16 l -4.646,6.5 -2.142,-1.999 v -4.501 H 0 Z"
             style="fill:#ffffff;fill-opacity:1;fill-rule:nonzero;stroke:none"
             id="path861" />
        </g>
        <g
           id="g863"
           transform="translate(248.6688,815.37262)">
          <path
             d="m 0,0 c 0,-1.748 -0.916,-3.511 -3.797,-3.511 -2.395,0 -3.745,1.332 -3.745,3.745 v 0.792 h 1.71 v -0.54 c 0,-1.495 0.396,-2.557 2.07,-2.557 1.568,0 2.053,0.899 2.053,2.323 V 9.65 H 0 Z"
             style="fill:#ffffff;fill-opacity:1;fill-rule:nonzero;stroke:none"
             id="path865" />
        </g>
        <g
           id="g867"
           transform="translate(253.8719,817.47862)">
          <path
             d="M 0,0 H 4.357 L 2.213,5.996 H 2.179 Z M 1.278,7.544 H 3.169 L 8.192,-5.312 H 6.301 L 4.897,-1.44 H -0.54 l -1.44,-3.872 h -1.765 z"
             style="fill:#ffffff;fill-opacity:1;fill-rule:nonzero;stroke:none"
             id="path869" />
        </g>
        <g
           id="g871"
           transform="translate(267.7323,812.16712)">
          <path
             d="m 0,0 h -1.944 l -4.537,12.855 h 1.853 L -0.954,1.71 h 0.036 L 2.79,12.855 h 1.782 z"
             style="fill:#ffffff;fill-opacity:1;fill-rule:nonzero;stroke:none"
             id="path873" />
        </g>
        <path
           d="m 273.9204,825.02302 h 1.712 v -12.855 h -1.712 z m 1.317,3.492 h 1.963 l -2.36,-2.574 h -1.154 z"
           style="fill:#ffffff;fill-opacity:1;fill-rule:nonzero;stroke:none"
           id="path875" />
        <g
           id="g877"
           transform="translate(278.6922,825.02252)">
          <path
             d="M 0,0 H 1.711 V -6.41 L 8.229,0 h 2.214 l -5.42,-5.186 5.635,-7.669 H 8.499 l -4.645,6.5 -2.143,-1.999 v -4.501 H 0 Z"
             style="fill:#ffffff;fill-opacity:1;fill-rule:nonzero;stroke:none"
             id="path879" />
        </g>
        <g
           id="g881"
           transform="translate(75.3329,802.04162)">
          <path
             d="m 0,0 h 3.301 c 1.08,0 2.003,0.676 2.003,1.808 0,1.131 -0.676,1.846 -2.003,1.846 H 0 Z m -0.885,4.408 h 4.252 c 1.534,0 2.819,-0.741 2.819,-2.418 0,-1.17 -0.609,-2.133 -1.805,-2.366 v -0.026 c 1.207,-0.157 1.56,-0.989 1.623,-2.094 0.041,-0.637 0.041,-1.911 0.431,-2.379 H 5.46 c -0.222,0.365 -0.222,1.053 -0.247,1.444 -0.078,1.3 -0.182,2.743 -1.859,2.678 H 0 v -4.122 h -0.885 z"
             style="fill:#ffffff;fill-opacity:1;fill-rule:nonzero;stroke:none"
             id="path883" />
        </g>
        <g
           id="g885"
           transform="translate(83.2489,806.44982)">
          <path
             d="M 0,0 H 6.41 V -0.754 H 0.885 V -4.109 H 6.059 V -4.863 H 0.885 v -3.666 h 5.59 V -9.283 H 0 Z"
             style="fill:#ffffff;fill-opacity:1;fill-rule:nonzero;stroke:none"
             id="path887" />
        </g>
        <g
           id="g889"
           transform="translate(93.6756,800.98882)">
          <path
             d="m 0,0 -3.654,5.461 h 1.053 L 0.455,0.754 3.496,5.461 H 4.55 L 0.884,0 V -3.822 H 0 Z"
             style="fill:#ffffff;fill-opacity:1;fill-rule:nonzero;stroke:none"
             id="path891" />
        </g>
        <g
           id="g893"
           transform="translate(99.161,806.44982)">
          <path
             d="M 0,0 H 0.885 V -4.992 L 6.279,0 H 7.476 L 3.328,-3.835 7.671,-9.283 H 6.525 L 2.666,-4.447 0.885,-6.097 V -9.283 H 0 Z"
             style="fill:#ffffff;fill-opacity:1;fill-rule:nonzero;stroke:none"
             id="path895" />
        </g>
        <g
           id="g897"
           transform="translate(111.4598,806.44982)">
          <path
             d="m 0,0 h 0.884 v -6.696 c 0,-1.885 -0.702,-2.783 -2.706,-2.783 -2.131,0 -2.6,1.561 -2.585,3.174 h 0.882 c 0.027,-0.795 -0.05,-2.419 1.783,-2.419 1.378,0 1.742,0.702 1.742,2.405 z"
             style="fill:#ffffff;fill-opacity:1;fill-rule:nonzero;stroke:none"
             id="path899" />
        </g>
        <g
           id="g901"
           transform="translate(115.6581,800.80822)">
          <path
             d="M 0,0 H 3.653 L 1.859,4.757 Z M 1.404,5.642 H 2.393 L 6.032,-3.641 H 5.083 L 3.952,-0.755 H -0.272 L -1.391,-3.641 H -2.34 Z"
             style="fill:#ffffff;fill-opacity:1;fill-rule:nonzero;stroke:none"
             id="path903" />
        </g>
        <g
           id="g905"
           transform="translate(120.9891,806.44982)">
          <path
             d="M 0,0 H 0.948 L 3.963,-8.308 H 3.99 L 6.98,0 H 7.916 L 4.471,-9.283 H 3.444 Z"
             style="fill:#ffffff;fill-opacity:1;fill-rule:nonzero;stroke:none"
             id="path907" />
        </g>
        <path
           d="m 129.9164,806.45002 h 0.885 v -9.283 h -0.885 z"
           style="fill:#ffffff;fill-opacity:1;fill-rule:nonzero;stroke:none"
           id="path909" />
        <g
           id="g911"
           transform="translate(132.868,806.44982)">
          <path
             d="M 0,0 H 0.885 V -4.992 L 6.28,0 H 7.477 L 3.33,-3.835 7.672,-9.283 H 6.527 l -3.86,4.836 -1.782,-1.65 V -9.283 H 0 Z"
             style="fill:#ffffff;fill-opacity:1;fill-rule:nonzero;stroke:none"
             id="path913" />
        </g>
        <g
           id="g915"
           transform="translate(145.076,806.44982)">
          <path
             d="m 0,0 h 0.885 v -5.747 c -0.014,-2.158 1.013,-2.977 2.717,-2.977 1.715,0 2.743,0.819 2.729,2.977 V 0 H 7.216 V -5.942 C 7.216,-7.853 6.188,-9.479 3.602,-9.479 1.026,-9.479 0,-7.853 0,-5.942 Z"
             style="fill:#ffffff;fill-opacity:1;fill-rule:nonzero;stroke:none"
             id="path917" />
        </g>
        <g
           id="g919"
           transform="translate(154.1883,806.44982)">
          <path
             d="M 0,0 H 0.989 L 6.396,-7.853 H 6.424 V 0 H 7.308 V -9.283 H 6.319 L 0.911,-1.431 H 0.883 V -9.283 H 0 Z"
             style="fill:#ffffff;fill-opacity:1;fill-rule:nonzero;stroke:none"
             id="path921" />
        </g>
        <path
           d="m 163.5494,806.45002 h 0.884 v -9.283 h -0.884 z"
           style="fill:#ffffff;fill-opacity:1;fill-rule:nonzero;stroke:none"
           id="path923" />
        <g
           id="g925"
           transform="translate(165.4735,806.44982)">
          <path
             d="M 0,0 H 0.947 L 3.965,-8.308 H 3.991 L 6.981,0 H 7.916 L 4.473,-9.283 h -1.03 z"
             style="fill:#ffffff;fill-opacity:1;fill-rule:nonzero;stroke:none"
             id="path927" />
        </g>
        <g
           id="g929"
           transform="translate(174.3368,806.44982)">
          <path
             d="M 0,0 H 6.412 V -0.754 H 0.887 V -4.109 H 6.061 V -4.863 H 0.887 v -3.666 h 5.59 V -9.283 H 0 Z"
             style="fill:#ffffff;fill-opacity:1;fill-rule:nonzero;stroke:none"
             id="path931" />
        </g>
        <g
           id="g933"
           transform="translate(183.0624,802.04162)">
          <path
             d="m 0,0 h 3.302 c 1.079,0 2.002,0.676 2.002,1.808 0,1.131 -0.676,1.846 -2.002,1.846 H 0 Z m -0.884,4.408 h 4.251 c 1.534,0 2.821,-0.741 2.821,-2.418 0,-1.17 -0.613,-2.133 -1.807,-2.366 v -0.026 c 1.21,-0.157 1.56,-0.989 1.625,-2.094 0.038,-0.637 0.038,-1.911 0.429,-2.379 H 5.459 c -0.22,0.365 -0.22,1.053 -0.246,1.444 -0.078,1.3 -0.182,2.743 -1.859,2.678 H 0 v -4.122 h -0.884 z"
             style="fill:#ffffff;fill-opacity:1;fill-rule:nonzero;stroke:none"
             id="path935" />
        </g>
        <g
           id="g937"
           transform="translate(191.3954,800.22182)">
          <path
             d="m 0,0 c -0.041,-1.911 1.339,-2.496 3.027,-2.496 0.977,0 2.458,0.533 2.458,1.885 0,1.054 -1.052,1.47 -1.911,1.678 L 1.508,1.573 c -1.092,0.273 -2.094,0.793 -2.094,2.237 0,0.91 0.586,2.613 3.198,2.613 1.833,0 3.445,-0.989 3.433,-2.887 H 5.16 C 5.108,4.953 3.938,5.668 2.626,5.668 1.417,5.668 0.299,5.2 0.299,3.822 0.299,2.951 0.948,2.588 1.702,2.405 L 3.965,1.846 C 5.276,1.495 6.37,0.924 6.37,-0.597 6.37,-1.234 6.109,-3.25 2.82,-3.25 0.623,-3.25 -0.988,-2.262 -0.885,0 Z"
             style="fill:#ffffff;fill-opacity:1;fill-rule:nonzero;stroke:none"
             id="path939" />
        </g>
        <path
           d="m 199.3644,806.45002 h 0.884 v -9.283 h -0.884 z"
           style="fill:#ffffff;fill-opacity:1;fill-rule:nonzero;stroke:none"
           id="path941" />
        <g
           id="g943"
           transform="translate(201.3133,806.44982)">
          <path
             d="M 0,0 H 7.358 V -0.754 H 4.121 V -9.283 H 3.237 v 8.529 H 0 Z"
             style="fill:#ffffff;fill-opacity:1;fill-rule:nonzero;stroke:none"
             id="path945" />
        </g>
        <g
           id="g947"
           transform="translate(212.2596,800.98882)">
          <path
             d="m 0,0 -3.655,5.461 h 1.054 L 0.455,0.754 3.497,5.461 H 4.55 L 0.884,0 V -3.822 H 0 Z"
             style="fill:#ffffff;fill-opacity:1;fill-rule:nonzero;stroke:none"
             id="path949" />
        </g>
      </g>
    </g>
  </g>
</svg>
