<?xml version="1.0" encoding="UTF-8" standalone="no"?>
<svg
   id="Layer_1"
   data-name="Layer 1"
   version="1.1"
   viewBox="0 0 480.00002 140"
   sodipodi:docname="syndis.svg"
   width="480"
   height="140"
   inkscape:version="1.4.1 (93de688d07, 2025-03-30)"
   xmlns:inkscape="http://www.inkscape.org/namespaces/inkscape"
   xmlns:sodipodi="http://sodipodi.sourceforge.net/DTD/sodipodi-0.dtd"
   xmlns="http://www.w3.org/2000/svg"
   xmlns:svg="http://www.w3.org/2000/svg">
  <sodipodi:namedview
     id="namedview22"
     pagecolor="#ffffff"
     bordercolor="#000000"
     borderopacity="0.25"
     inkscape:showpageshadow="2"
     inkscape:pageopacity="0.0"
     inkscape:pagecheckerboard="0"
     inkscape:deskcolor="#d1d1d1"
     inkscape:zoom="1.0881727"
     inkscape:cx="78.57209"
     inkscape:cy="269.25874"
     inkscape:window-width="2556"
     inkscape:window-height="1401"
     inkscape:window-x="1920"
     inkscape:window-y="18"
     inkscape:window-maximized="1"
     inkscape:current-layer="Layer_1" />
  <defs
     id="defs1">
    <style
       id="style1">
      .cls-1 {
        clip-path: url(#clippath);
      }

      .cls-2 {
        fill: none;
      }

      .cls-2, .cls-3, .cls-4, .cls-5 {
        stroke-width: 0px;
      }

      .cls-3 {
        fill: #fdfeff;
      }

      .cls-4 {
        fill: #fff;
      }

      .cls-5 {
        fill: #2ac4e9;
      }
    </style>
    <clipPath
       id="clippath">
      <rect
         class="cls-2"
         x="66.5"
         width="430.39999"
         height="100.9"
         id="rect1"
         y="0" />
    </clipPath>
  </defs>
  <g
     class="cls-1"
     clip-path="url(#clippath)"
     id="g8"
     transform="translate(-41.45,19.55)">
    <g
       id="g7">
      <path
         class="cls-5"
         d="M 97.7,58.5 87.6,42.4 h 30.3 L 128,58.5 Z m 40,-4.7 v 0 L 123.8,31.7 H 87.5 L 97.6,15.6 h 31.5 c 1.8,2.9 4.9,4.8 8.6,4.8 3.7,0 7,-2 8.8,-5.1 0.9,-1.5 1.4,-3.2 1.4,-5.1 0,-1.9 -0.5,-3.6 -1.4,-5.1 C 144.7,2 141.4,0 137.7,0 134,0 130.9,1.9 129.1,4.8 H 91.7 L 91.5,5.1 85.1,15.3 77.8,27 v 0 c -5.6,0 -10.1,4.5 -10.1,10.1 0,5.6 4.5,10.1 10.1,10.1 v 0 L 91.7,69.3 H 128 L 117.9,85.4 H 86.4 c -1.8,-2.9 -4.9,-4.8 -8.6,-4.8 -3.7,0 -7.1,2.1 -8.8,5.1 -0.8,1.5 -1.3,3.2 -1.3,5 0,1.8 0.5,3.6 1.4,5.2 1.8,3 5,5 8.7,5 3.7,0 6.8,-1.9 8.6,-4.8 h 37.4 v -0.2 c 0.1,0 6.5,-10.2 6.5,-10.2 L 137.7,74 v 0 c 5.6,0 10.1,-4.5 10.1,-10.1 0,-5.6 -4.5,-10.1 -10.1,-10.1 z"
         id="path1" />
      <path
         class="cls-4"
         d="m 189.7,85.6 c -2.7,0 -5.6,-0.3 -8.5,-0.8 -2.9,-0.5 -5.6,-1.2 -8.1,-1.9 -2.5,-0.8 -4.4,-1.5 -5.9,-2.2 l 1.4,-13.2 c 2.3,1.1 4.6,2.1 7.1,3 2.4,0.9 5,1.7 7.5,2.3 2.6,0.6 5.2,0.9 7.8,0.9 2.6,0 5.9,-0.6 7.9,-1.9 2,-1.3 3,-3.3 3,-5.9 0,-2.6 -0.6,-3.7 -1.7,-4.9 -1.1,-1.2 -2.9,-2.4 -5.2,-3.3 -2.3,-1 -5.3,-2.1 -8.9,-3.4 -3.6,-1.3 -6.8,-2.7 -9.7,-4.3 -2.9,-1.6 -5.1,-3.6 -6.8,-6.1 -1.7,-2.4 -2.5,-5.6 -2.5,-9.4 0,-3.8 0.9,-7.1 2.8,-10 1.8,-2.9 4.6,-5.2 8.2,-6.9 3.7,-1.7 8.2,-2.5 13.7,-2.5 5.5,0 8.1,0.5 11.8,1.4 3.7,0.9 6.9,1.9 9.6,3 l -1.3,12.7 c -3.8,-1.7 -7.4,-3 -10.7,-3.9 -3.3,-0.9 -6.7,-1.3 -10.2,-1.3 -3.5,0 -6.4,0.6 -8.4,1.8 -2,1.2 -2.9,3 -2.9,5.4 0,2.4 0.6,3.4 1.6,4.6 1.1,1.2 2.7,2.2 4.7,3 2,0.8 4.5,1.7 7.3,2.6 4.9,1.5 9,3.3 12.3,5.1 3.3,1.9 5.8,4.1 7.5,6.7 1.7,2.6 2.5,5.9 2.5,9.7 0,3.8 -0.3,4 -0.9,6.3 -0.6,2.3 -1.8,4.4 -3.6,6.5 -1.8,2 -4.4,3.7 -7.9,5 -3.5,1.3 -8,2 -13.7,2 v 0 z"
         id="path2" />
      <path
         class="cls-4"
         d="M 241.7,84.3 V 56.9 L 217.9,16.6 h 13.5 l 19.3,34.3 h -5.8 l 19.3,-34.3 h 13.5 l -23.8,40.3 v 27.4 h -12.4 z"
         id="path3" />
      <path
         class="cls-4"
         d="M 284.5,84.3 V 16.5 h 12.2 l 28.9,43.7 V 16.5 H 338 V 84.2 H 327.9 L 297,37.8 v 46.4 h -12.4 z"
         id="path4" />
      <path
         class="cls-4"
         d="M 352.8,84.3 V 16.5 h 25.3 c 6.4,0 12.2,1.3 17.2,4 5,2.7 9,6.6 11.8,11.6 2.9,5 4.3,11.1 4.3,18.2 0,7.1 -1.4,13.2 -4.3,18.2 -2.9,5 -6.8,8.9 -11.8,11.6 -5,2.7 -10.8,4 -17.2,4 h -25.3 z m 12.4,-11.1 h 13 c 4.4,0 8,-0.9 11,-2.8 2.9,-1.8 5.1,-4.5 6.6,-7.9 1.5,-3.4 2.2,-7.5 2.2,-12.2 0,-4.7 -0.7,-8.8 -2.2,-12.2 -1.5,-3.4 -3.7,-6 -6.6,-7.9 -2.9,-1.8 -6.6,-2.8 -11,-2.8 h -13 v 45.7 0 z"
         id="path5" />
      <path
         class="cls-4"
         d="M 422.4,84.3 V 16.5 h 12.4 v 67.7 h -12.4 z"
         id="path6" />
      <path
         class="cls-4"
         d="m 469.3,85.6 c -2.7,0 -5.6,-0.3 -8.5,-0.8 -2.9,-0.5 -5.6,-1.2 -8.1,-1.9 -2.5,-0.8 -4.4,-1.5 -5.9,-2.2 l 1.4,-13.2 c 2.3,1.1 4.6,2.1 7.1,3 2.4,0.9 5,1.7 7.5,2.3 2.6,0.6 5.2,0.9 7.8,0.9 2.6,0 5.9,-0.6 7.9,-1.9 2,-1.3 3,-3.3 3,-5.9 0,-2.6 -0.6,-3.7 -1.7,-4.9 -1.1,-1.2 -2.9,-2.4 -5.2,-3.3 -2.3,-1 -5.3,-2.1 -8.9,-3.4 -3.6,-1.3 -6.8,-2.7 -9.7,-4.3 -2.9,-1.6 -5.1,-3.6 -6.8,-6.1 -1.7,-2.4 -2.5,-5.6 -2.5,-9.4 0,-3.8 0.9,-7.1 2.8,-10 1.8,-2.9 4.6,-5.2 8.2,-6.9 3.7,-1.7 8.2,-2.5 13.7,-2.5 5.5,0 8.1,0.5 11.8,1.4 3.7,0.9 6.9,1.9 9.6,3 l -1.3,12.7 c -3.8,-1.7 -7.4,-3 -10.7,-3.9 -3.3,-0.9 -6.7,-1.3 -10.2,-1.3 -3.5,0 -6.4,0.6 -8.4,1.8 -2,1.2 -2.9,3 -2.9,5.4 0,2.4 0.5,3.4 1.6,4.6 1.1,1.2 2.7,2.2 4.7,3 2,0.8 4.5,1.7 7.3,2.6 4.9,1.5 9,3.3 12.3,5.1 3.3,1.9 5.8,4.1 7.5,6.7 1.7,2.6 2.5,5.9 2.5,9.7 0,3.8 -0.3,4 -0.9,6.3 -0.6,2.3 -1.8,4.4 -3.6,6.5 -1.8,2 -4.4,3.7 -7.9,5 -3.5,1.3 -8,2 -13.8,2 v 0 z"
         id="path7" />
    </g>
  </g>
</svg>
