<?xml version="1.0" encoding="UTF-8" standalone="no"?>
<svg
   width="135mm"
   height="35mm"
   viewBox="0 0 135 35"
   version="1.1"
   id="svg3798"
   xmlns="http://www.w3.org/2000/svg"
   xmlns:svg="http://www.w3.org/2000/svg"
   xmlns:rdf="http://www.w3.org/1999/02/22-rdf-syntax-ns#"
   xmlns:cc="http://creativecommons.org/ns#"
   xmlns:dc="http://purl.org/dc/elements/1.1/">
  <defs
     id="defs3792">
    <rect
       x="115.44447"
       y="49.457134"
       width="146.59914"
       height="67.755867"
       id="rect16113" />
    <rect
       x="105.84501"
       y="84.099945"
       width="41.336285"
       height="17.324526"
       id="rect2117-0-6-6-9-4-1-8-8-3" />
    <rect
       x="105.84501"
       y="84.099945"
       width="41.336285"
       height="17.324526"
       id="rect3775" />
    <rect
       x="105.84501"
       y="84.099945"
       width="41.336285"
       height="17.324526"
       id="rect2117-0-6-6-9-4-1-8-8-3-8-4" />
    <rect
       x="105.84501"
       y="84.099945"
       width="41.336285"
       height="17.324526"
       id="rect6640" />
    <rect
       x="105.84501"
       y="84.099945"
       width="41.336285"
       height="17.324526"
       id="rect2117-0-6-6-9-4-1-8-8-3-8-4-3" />
    <rect
       x="105.84501"
       y="84.099945"
       width="41.336285"
       height="17.324526"
       id="rect2117-0-6-6-9-4-1-8-8-3-8-4-3-5" />
    <rect
       x="105.84501"
       y="84.099945"
       width="41.336285"
       height="17.324526"
       id="rect2117-0-6-6-9-4-1-8-8-3-8-4-3-5-6" />
  </defs>
  <metadata
     id="metadata3795">
    <rdf:RDF>
      <cc:Work
         rdf:about="">
        <dc:format>image/svg+xml</dc:format>
        <dc:type
           rdf:resource="http://purl.org/dc/dcmitype/StillImage" />
      </cc:Work>
    </rdf:RDF>
  </metadata>
  <g
     id="layer1">
    <g
       id="g6629"
       transform="translate(-1.3385014,-8.1517887)">
      <g
         id="g58542"
         transform="matrix(0.14779881,0,0,0.14779881,-391.78571,-571.85428)">
        <g
           id="g5431"
           transform="translate(-73.440909,-1.6833372)">
          <path
             fill-rule="evenodd"
             clip-rule="evenodd"
             d="m 2812.6177,4080.3321 -2.46,-0.04 v 20.41 l 2.37,0.03 c 7.48,0.12 14.9,-1.25 21.84,-4.03 6.94,-2.78 13.25,-6.92 18.58,-12.16 2.44,-2.4 4.66,-5.02 6.61,-7.81 1.79,2.54 3.79,4.95 6,7.19 10.38,10.55 24.49,16.58 39.28,16.81 l 2.45,0.04 v -20.39 l -2.36,-0.05 c -9.43,-0.17 -18.4,-4.03 -25,-10.76 -4.17,-4.24 -7.17,-9.4 -8.83,-15 h 36.19 v -20.4 h -36.19 c 1.66,-5.59 4.67,-10.75 8.83,-14.98 6.6,-6.73 15.57,-10.59 25,-10.77 l 2.36,-0.04 v -20.39 l -2.45,0.03 c -14.79,0.23 -28.9,6.27 -39.28,16.82 -2.21,2.24 -4.21,4.65 -6,7.19 -1.95,-2.79 -4.17,-5.41 -6.61,-7.81 -5.33,-5.25 -11.64,-9.38 -18.58,-12.16 -6.94,-2.78 -14.36,-4.15 -21.84,-4.03 l -2.37,0.03 v 20.41 l 2.46,-0.05 c 4.77,-0.08 9.52,0.78 13.96,2.55 4.44,1.77 8.48,4.4 11.89,7.75 3.41,3.35 6.12,7.34 7.97,11.75 0.51,1.21 0.95,2.45 1.32,3.7 h -37.6 v 20.4 h 37.6 c -0.37,1.26 -0.81,2.51 -1.32,3.72 -1.85,4.41 -4.56,8.4 -7.97,11.75 -3.41,3.35 -7.45,5.98 -11.89,7.75 -4.44,1.77 -9.19,2.63 -13.96,2.54 z"
             fill="#4d69ff"
             id="path1070-3-4-8"
             style="fill:#126599;fill-opacity:1" />
          <path
             id="rect4777"
             style="fill:#db162f;stroke-width:0.569585;stroke-linejoin:round"
             d="m 2810.1577,4034.1721 h 97.13 v 20.4 h -97.13 z" />
        </g>
      </g>
      <text
         xml:space="preserve"
         id="text16111"
         style="font-size:10.5833px;line-height:1.2;font-family:sans-serif;letter-spacing:0px;white-space:pre;shape-inside:url(#rect16113)" />
      <g
         id="g4494"
         transform="matrix(1.3037896,0,0,1.3037896,-4.9735281,43.60043)">
        <g
           id="g4472"
           transform="matrix(3.0376797,0,0,3.0376797,-295.41097,-241.44572)"
           style="font-weight:600;font-size:4.93889px;line-height:0;font-family:'Signika Negative';-inkscape-font-specification:'Signika Negative, Semi-Bold';letter-spacing:0px;word-spacing:0px;white-space:pre;shape-inside:url(#rect2117-0-6-6-9-4-1-8-8-3-8-4)" />
        <g
           id="g4951"
           transform="translate(1.4124325,0.1992104)">
          <g
             id="g4965">
            <g
               id="g5059"
               transform="translate(0.78512903,-0.63946892)">
              <path
                 id="path4468"
                 style="font-weight:bold;font-size:4.93889px;line-height:1.2;font-family:Norse;-inkscape-font-specification:'Norse, Bold';letter-spacing:0px;word-spacing:0px;white-space:pre;shape-inside:url(#rect2117-0-6-6-9-4-1-8-8-3-8-4);fill:#12659a;stroke:#12659a;stroke-width:0.537086;stroke-linejoin:round;stroke-miterlimit:4;stroke-dasharray:none;stroke-opacity:1"
                 d="m 74.189386,-22.318161 -0.241461,0.322514 -0.580096,0.821539 -0.451273,0.596172 0.289754,0.193725 0.757701,0.193169 0.209158,-0.177083 0.242115,-0.322515 0.612269,-0.54788 0.467392,-0.499585 -0.274092,-0.241461 z" />
              <path
                 id="path4470"
                 style="font-weight:bold;font-size:4.93889px;line-height:1.2;font-family:Norse;-inkscape-font-specification:'Norse, Bold';letter-spacing:0px;word-spacing:0px;white-space:pre;shape-inside:url(#rect2117-0-6-6-9-4-1-8-8-3-8-4);fill:#12659a;stroke:#12659a;stroke-width:0.537086;stroke-linejoin:round;stroke-miterlimit:4;stroke-dasharray:none;stroke-opacity:1"
                 d="m 73.574376,-19.095339 -0.7577,0.04829 0.0806,0.805445 0.01632,0.370804 0.04829,3.223435 0.06624,0.419097 -5.87e-4,0.869836 -0.04829,0.499585 v 3.013611 0.5806311 0.5961693 l -0.225474,1.4343686 0.741027,0.015662 0.338635,0.015989 0.709407,-0.2253754 0.01632,-0.5961726 -0.03263,-0.3063956 -0.03263,-0.2414619 v -4.4640765 l -0.03263,-0.451296 -0.03263,-0.402996 -0.06493,-0.628369 0.04829,-0.822096 0.04829,-2.111026 0.08092,-0.402997 0.0806,-1.176248 z" />
              <path
                 d="M 97.106724,-8.6687748 V -9.184475 l -0.1129,-3.529312 -0.05352,-0.51585 0.0066,-0.69282 0.161193,-3.964436 0.03263,-1.095861 -0.660725,-0.112802 -0.934719,0.01598 v 1.289246 l 0.0032,0.300164 -0.0032,0.425025 v 1.385947 l -0.531803,-0.870241 -0.104088,-0.0801 -0.427681,-0.629006 -1.450402,-1.998335 -1.273125,0.354544 v 0.83801 l 0.06461,1.676023 0.06461,0.918586 -0.06461,3.352043 0.0098,0.368295 0.0066,0.421376 -0.09659,2.2884132 v 0.2739615 l 0.0483,0.1450404 -0.1129,1.2892453 0.692963,0.1289213 0.950806,-0.0323 0.03263,-1.0313975 -0.0483,-0.2256032 0.01632,-1.676023 -0.04437,-0.604888 -0.01958,-0.587667 0.03263,-3.674354 -0.0032,-0.257875 0.01958,-0.564114 v -0.870242 l 0.419002,0.580161 0.660757,0.918589 0.467359,0.564046 0.225473,0.354541 0.225473,0.241723 0.257778,0.435121 0.01632,1.67602 -6.5e-5,0.295726 6.5e-5,0.09104 -0.01632,1.547095 0.01632,1.5309825 -0.01632,1.2570147 0.547922,0.0323 0.886361,-0.015984 0.209484,-0.5479286 z"
                 style="font-weight:bold;font-size:4.93889px;line-height:1.2;font-family:Norse;-inkscape-font-specification:'Norse, Bold';letter-spacing:0px;word-spacing:0px;white-space:pre;shape-inside:url(#rect2117-0-6-6-9-4-1-8-8-3-8-4);fill:#12659a;stroke:#12659a;stroke-width:0.536896;stroke-linecap:butt;stroke-linejoin:round;stroke-miterlimit:4;stroke-dasharray:none;stroke-opacity:1;paint-order:normal"
                 id="path4474" />
              <path
                 d="m 57.989951,-10.63502 0.128888,0.531813 0.01632,0.1350882 9.13e-4,0.1227546 0.06461,0.4512361 0.209485,2.030563 0.274092,0.1450402 h 0.209484 l 1.192562,-0.3867724 -0.177181,-0.6929691 -0.09691,-0.2511203 -0.04829,-0.1356424 -0.161192,-1.0152818 -0.402915,-1.4987471 v -0.225605 l -0.773527,-3.883856 c -0.02937,-0.144583 -0.05449,-0.289916 -0.0806,-0.43512 l -0.515686,-2.465689 -0.03883,-0.173722 -0.04815,-0.294621 -0.06528,-0.52289 -0.219926,0.0082 -1.321482,0.06447 -0.161191,1.015283 -0.145204,0.676853 -0.1129,0.644624 c -0.03818,0.217578 -0.07277,0.387247 -0.112899,0.580143 l -0.483479,2.159487 -0.03981,0.298304 -0.05678,0.330193 -0.04829,0.3062 -0.322385,1.982216 -0.08223,0.280846 -0.07864,0.218752 -0.161193,1.0152816 -0.43512,1.9660997 0.564041,0.3545442 0.999163,0.096687 0.177181,-1.0797418 0.01305,-0.4302399 0.01958,-0.1982916 0.17718,-1.1442062 0.322385,-0.128921 0.144877,-0.06447 1.079758,-0.257843 0.322385,-0.225603 h 0.01632 l 0.225799,-0.0323 z m -1.482642,-3.690471 0.0806,-0.338406 0.322384,-1.966101 0.241788,1.708253 0.06461,0.29008 0.06461,0.83801 0.322383,1.740484 -0.451239,0.112801 -1.047488,0.322319 0.01632,-0.112801 0.17718,-1.031526 v 0 z"
                 style="font-weight:bold;font-size:4.93889px;line-height:1.2;font-family:Norse;-inkscape-font-specification:'Norse, Bold';letter-spacing:0px;word-spacing:0px;white-space:pre;shape-inside:url(#rect2117-0-6-6-9-4-1-8-8-3-8-4);fill:#12659a;stroke:#12659a;stroke-width:0.537086;stroke-linecap:butt;stroke-linejoin:round;stroke-miterlimit:4;stroke-dasharray:none;stroke-opacity:1;paint-order:normal"
                 id="path7401" />
              <path
                 d="m 63.808866,-14.067622 0.01632,1.337595 0.06461,0.193398 0.03263,0.128921 -0.09659,2.5462612 -0.01632,0.096686 -0.547923,-1.1925532 -0.127583,-0.202014 -0.146509,-0.265249 -0.950838,-1.563211 -0.29008,-0.467352 0.209484,-0.322319 0.370644,-0.709085 0.628519,-1.031398 1.2248,-1.724367 0.142265,-0.197575 0.405396,-0.511504 0.370644,-0.628506 -0.419002,-0.386776 -0.177181,-0.128922 -0.612367,-0.354541 -0.75744,1.047511 -0.117794,0.18958 -0.703828,1.019093 -0.233957,0.412858 -1.2248,1.869408 -0.28747,0.530093 -0.08059,0.112802 -0.187622,0.2335 -0.03263,1.192554 0.773526,1.176435 0.483478,0.660741 0.370644,0.709085 0.01632,0.01598 0.789677,1.4181698 0.564043,0.8541286 0.193495,0.3867735 0.209485,0.4190041 1.531,-0.1611592 -0.01632,-0.7252008 -0.0066,-0.1750926 0.0066,-0.1471942 0.0806,-3.9966622 0.02284,-0.348818 0.123015,-0.892072 -0.193496,-0.483469 z"
                 style="font-weight:bold;font-size:4.93889px;line-height:1.2;font-family:Norse;-inkscape-font-specification:'Norse, Bold';letter-spacing:0px;word-spacing:0px;white-space:pre;shape-inside:url(#rect2117-0-6-6-9-4-1-8-8-3-8-4);fill:#12659a;stroke:#12659a;stroke-width:0.537086;stroke-linecap:butt;stroke-linejoin:round;stroke-miterlimit:4;stroke-dasharray:none;stroke-opacity:1;paint-order:normal"
                 id="path4478" />
              <path
                 d="m 43.729026,-14.067622 0.01632,1.337595 0.06461,0.193398 0.03263,0.128921 -0.09659,2.5462612 -0.01632,0.096686 -0.547923,-1.1925532 -0.127583,-0.202014 -0.146509,-0.265249 -0.950837,-1.563211 -0.290081,-0.467352 0.209485,-0.322319 0.370644,-0.709085 0.628518,-1.031398 1.224799,-1.724367 0.142267,-0.197575 0.405395,-0.511504 0.370644,-0.628506 -0.419002,-0.386776 -0.17718,-0.128922 -0.612367,-0.354541 -0.75744,1.047511 -0.117794,0.18958 -0.70383,1.019093 -0.233956,0.412858 -1.2248,1.869408 -0.287469,0.530093 -0.0806,0.112802 -0.187622,0.2335 -0.03263,1.192554 0.773527,1.176435 0.483479,0.660741 0.370644,0.709085 0.01632,0.01598 0.789678,1.4181698 0.564042,0.8541286 0.193496,0.3867735 0.209484,0.4190041 1.530999,-0.1611592 -0.01632,-0.7252008 -0.0066,-0.1750926 0.0066,-0.1471942 0.0806,-3.9966632 0.02284,-0.348817 0.123015,-0.892073 -0.193496,-0.483469 z"
                 style="font-weight:bold;font-size:4.93889px;line-height:1.2;font-family:Norse;-inkscape-font-specification:'Norse, Bold';letter-spacing:0px;word-spacing:0px;white-space:pre;shape-inside:url(#rect2117-0-6-6-9-4-1-8-8-3-8-4);fill:#12659a;stroke:#12659a;stroke-width:0.537086;stroke-linecap:butt;stroke-linejoin:round;stroke-miterlimit:4;stroke-dasharray:none;stroke-opacity:1;paint-order:normal"
                 id="path4480" />
              <path
                 d="m 37.911165,-10.63502 0.128888,0.531813 0.01632,0.1350882 9.13e-4,0.1227546 0.06461,0.4512361 0.209485,2.030563 0.274092,0.1450402 h 0.209484 l 1.192562,-0.3867724 -0.177181,-0.6929691 -0.09691,-0.2511203 -0.04829,-0.1356424 -0.161192,-1.0152818 -0.402915,-1.4987471 v -0.225605 l -0.773527,-3.883856 c -0.02937,-0.144583 -0.05449,-0.289916 -0.0806,-0.43512 l -0.515686,-2.465689 -0.03883,-0.173722 -0.04815,-0.294621 -0.06528,-0.52289 -0.219926,0.0082 -1.321482,0.06447 -0.161191,1.015283 -0.145204,0.676853 -0.1129,0.644624 c -0.03818,0.217578 -0.07277,0.387247 -0.112899,0.580143 l -0.483479,2.159487 -0.03981,0.298304 -0.05678,0.330193 -0.04829,0.3062 -0.322385,1.982216 -0.08223,0.280846 -0.07864,0.218752 -0.161193,1.0152816 -0.43512,1.9660997 0.564041,0.3545442 0.999163,0.096687 0.177181,-1.0797418 0.01305,-0.4302399 0.01958,-0.1982916 0.17718,-1.1442062 0.322385,-0.128921 0.144877,-0.06447 1.079758,-0.257843 0.322385,-0.225603 h 0.01632 l 0.225799,-0.0323 z m -1.482642,-3.690471 0.0806,-0.338406 0.322384,-1.966101 0.241788,1.708253 0.06461,0.29008 0.06461,0.83801 0.322383,1.740484 -0.451239,0.112801 -1.047488,0.322319 0.01632,-0.112801 0.17718,-1.031526 v 0 z"
                 style="font-weight:bold;font-size:4.93889px;line-height:1.2;font-family:Norse;-inkscape-font-specification:'Norse, Bold';letter-spacing:0px;word-spacing:0px;white-space:pre;shape-inside:url(#rect2117-0-6-6-9-4-1-8-8-3-8-4);fill:#12659a;stroke:#12659a;stroke-width:0.537086;stroke-linecap:butt;stroke-linejoin:round;stroke-miterlimit:4;stroke-dasharray:none;stroke-opacity:1;paint-order:normal"
                 id="path4482" />
              <path
                 d="m 52.415161,-8.6687695 v -0.5157002 l -0.1129,-3.5293113 -0.05352,-0.515851 0.0066,-0.692819 0.161192,-3.964436 0.03263,-1.095861 -0.660725,-0.112803 -0.934718,0.016 v 1.289246 l 0.0032,0.300164 -0.0032,0.425025 v 1.385942 l -0.531804,-0.870241 -0.104087,-0.08011 -0.427681,-0.629006 -1.450403,-1.998335 -1.273125,0.354544 v 0.83801 l 0.06461,1.676023 0.06461,0.918586 -0.06461,3.352043 0.0098,0.368295 0.0066,0.421377 -0.09659,2.2884122 v 0.2739615 l 0.0483,0.1450404 -0.1129,1.2892453 0.692964,0.1289213 0.950805,-0.0323 0.03263,-1.0313975 -0.04829,-0.2256032 0.01632,-1.676023 -0.04437,-0.604888 -0.01958,-0.587666 0.03263,-3.674355 -0.0032,-0.257875 0.01958,-0.564114 v -0.870241 l 0.419002,0.58016 0.660757,0.918589 0.46736,0.564046 0.225472,0.354541 0.225474,0.241723 0.257777,0.435121 0.01632,1.67602 -6.6e-5,0.295726 6.6e-5,0.09104 -0.01632,1.547095 0.01632,1.5309825 -0.01632,1.2570147 0.547922,0.0323 0.886361,-0.015984 0.209485,-0.5479286 z"
                 style="font-weight:bold;font-size:4.93889px;line-height:1.2;font-family:Norse;-inkscape-font-specification:'Norse, Bold';letter-spacing:0px;word-spacing:0px;white-space:pre;shape-inside:url(#rect2117-0-6-6-9-4-1-8-8-3-8-4);fill:#12659a;stroke:#12659a;stroke-width:0.537086;stroke-linecap:butt;stroke-linejoin:round;stroke-miterlimit:4;stroke-dasharray:none;stroke-opacity:1;paint-order:normal"
                 id="path4484" />
              <path
                 d="m 69.981122,-8.7175792 -1.224766,0.0323 v -0.4673523 l -0.04829,-1.1440785 v 0 l -0.04829,-1.111978 -0.03263,-0.98305 -0.0032,-0.200772 -0.01305,-0.282707 v -0.789664 l 0.09659,-1.772716 0.0483,-1.804948 0.06428,-0.547929 -0.0031,-1.233317 -0.383478,-0.184853 -0.554891,-0.02619 -0.768377,0.02943 0.06631,1.882278 0.02937,0.175941 0.01958,0.178584 0.03263,5.253685 -0.1129,2.6590696 v 0 l -0.06461,0.6929723 0.03263,1.0958573 0.725202,0.0323 0.627833,-0.030346 0.226126,-0.00193 h 0.692995 l 0.225473,-0.015984 1.2248,0.080563 0.241788,-0.3061999 0.06461,-1.0152814 -0.04829,-0.3384284 -0.75744,0.0323 z"
                 style="font-weight:bold;font-size:4.93889px;line-height:1.2;font-family:Norse;-inkscape-font-specification:'Norse, Bold';letter-spacing:0px;word-spacing:0px;white-space:pre;shape-inside:url(#rect2117-0-6-6-9-4-1-8-8-3-8-4);fill:#12659a;stroke:#12659a;stroke-width:0.537086;stroke-linecap:butt;stroke-linejoin:round;stroke-miterlimit:4;stroke-dasharray:none;stroke-opacity:1;paint-order:normal"
                 id="path4486" />
              <path
                 d="m 78.819085,-17.693744 -0.725201,-1.466519 -0.596281,0.08056 -0.692963,0.04836 0.01632,0.902473 0.01632,0.16116 0.02284,0.297748 0.0098,0.217936 0.0483,0.789666 0.04829,0.789661 -0.01632,1.450403 v 0 0.451241 l -0.09659,4.4317877 v 0.4190044 0.3223186 l -0.01632,0.3923928 -0.04927,0.5906572 0.128888,0.6123928 1.514848,-0.0323 v -0.6929698 l -0.03263,-2.3689917 -0.03263,-2.238082 0.03263,-0.324276 v -2.223953 l -0.01632,-0.01598 v -0.01599 l 0.03263,-1.079746 0.338438,0.660741 0.112899,0.257842 0.06461,0.128921 0.386763,0.757433 0.43512,0.016 0.580162,-0.112803 0.225799,-0.58016 0.209484,-0.386776 0.05123,-0.120991 0.222862,-0.394699 0.144877,-0.257843 0.06461,0.596277 -0.112899,3.513199 0.06461,0.741313 0.0066,0.205636 -0.02284,0.245606 v 1.7243696 l -0.112899,1.0636255 0.0483,0.6929742 0.386763,0.2417223 1.337601,-0.064472 -0.09658,-1.0152821 -0.03263,-0.515697 -0.112899,-0.8863569 0.0806,-1.0152816 -0.128889,-5.189222 -0.0031,-0.233794 0.03524,-0.362469 0.1129,-2.385106 -0.43512,-0.193398 -0.789679,-0.14504 -0.838003,1.402055 v 0 l -0.1129,0.354525 -0.515717,0.934705 -0.274091,0.419006 -0.01632,-0.01598 z"
                 style="font-weight:bold;font-size:4.93889px;line-height:1.2;font-family:Norse;-inkscape-font-specification:'Norse, Bold';letter-spacing:0px;word-spacing:0px;white-space:pre;shape-inside:url(#rect2117-0-6-6-9-4-1-8-8-3-8-4);fill:#12659a;stroke:#12659a;stroke-width:0.537086;stroke-linecap:butt;stroke-linejoin:round;stroke-miterlimit:4;stroke-dasharray:none;stroke-opacity:1;paint-order:normal"
                 id="path4488" />
              <path
                 d="m 88.324155,-10.63502 0.128888,0.531813 0.01632,0.1350882 9.13e-4,0.1227546 0.06461,0.4512361 0.209485,2.030563 0.274092,0.1450402 h 0.209484 l 1.192562,-0.3867724 -0.177181,-0.6929691 -0.09691,-0.2511203 -0.04829,-0.1356424 -0.161192,-1.0152818 -0.402915,-1.4987471 v -0.225605 l -0.773527,-3.883856 c -0.02937,-0.144583 -0.05449,-0.289916 -0.0806,-0.43512 l -0.515686,-2.465689 -0.03883,-0.173722 -0.04815,-0.294621 -0.06528,-0.52289 -0.219926,0.0082 -1.321482,0.06447 -0.161191,1.015283 -0.145204,0.676853 -0.1129,0.644624 c -0.03818,0.217578 -0.07277,0.387247 -0.112899,0.580143 l -0.483479,2.159487 -0.03981,0.298304 -0.05678,0.330193 -0.04829,0.3062 -0.322385,1.982216 -0.08223,0.280846 -0.07864,0.218752 -0.161193,1.0152816 -0.43512,1.9660997 0.564041,0.3545442 0.999163,0.096687 0.177181,-1.0797418 0.01305,-0.4302399 0.01958,-0.1982916 0.17718,-1.1442062 0.322385,-0.128921 0.144877,-0.06447 1.079758,-0.257843 0.322385,-0.225603 h 0.01632 l 0.225799,-0.0323 z m -1.482642,-3.690471 0.0806,-0.338406 0.322384,-1.966101 0.241788,1.708253 0.06461,0.29008 0.06461,0.83801 0.322383,1.740484 -0.451239,0.112801 -1.047488,0.322319 0.01632,-0.112801 0.17718,-1.031526 v 0 z"
                 style="font-weight:bold;font-size:4.93889px;line-height:1.2;font-family:Norse;-inkscape-font-specification:'Norse, Bold';letter-spacing:0px;word-spacing:0px;white-space:pre;shape-inside:url(#rect2117-0-6-6-9-4-1-8-8-3-8-4);fill:#12659a;stroke:#12659a;stroke-width:0.537086;stroke-linecap:butt;stroke-linejoin:round;stroke-miterlimit:4;stroke-dasharray:none;stroke-opacity:1;paint-order:normal"
                 id="path7736" />
              <path
                 d="m 30.590301,-14.067617 0.01632,1.337594 0.06461,0.193398 0.03263,0.128921 -0.09659,2.5462615 -0.01632,0.096687 -0.547924,-1.1925585 -0.127583,-0.202013 -0.146509,-0.265249 -0.950838,-1.563211 -0.29008,-0.467353 0.209485,-0.322319 0.370644,-0.709085 0.628519,-1.031398 1.224799,-1.724366 0.142266,-0.197575 0.405395,-0.511504 0.370644,-0.628506 -0.419001,-0.386777 -0.177181,-0.128921 -0.612368,-0.354542 -0.757439,1.047511 -0.117794,0.18958 -0.703829,1.019094 -0.233956,0.412858 -1.2248,1.869407 -0.287471,0.530093 -0.08059,0.112802 -0.187622,0.2335 -0.03263,1.192554 0.773526,1.176435 0.483478,0.660741 0.370644,0.709086 0.01632,0.01598 0.789678,1.4181708 0.564042,0.8541286 0.193496,0.3867735 0.209485,0.4190041 1.530998,-0.1611592 -0.01632,-0.7252008 -0.0066,-0.1750926 0.0066,-0.1471942 0.0806,-3.9966632 0.02284,-0.348818 0.123016,-0.892072 -0.193497,-0.483469 z"
                 style="font-weight:bold;font-size:4.93889px;line-height:1.2;font-family:Norse;-inkscape-font-specification:'Norse, Bold';letter-spacing:0px;word-spacing:0px;white-space:pre;shape-inside:url(#rect2117-0-6-6-9-4-1-8-8-3-8-4);fill:#12659a;stroke:#12659a;stroke-width:0.537086;stroke-linecap:butt;stroke-linejoin:round;stroke-miterlimit:4;stroke-dasharray:none;stroke-opacity:1;paint-order:normal"
                 id="path4492" />
            </g>
          </g>
        </g>
      </g>
    </g>
  </g>
</svg>
